<svg data-v-423bf9ae="" xmlns="http://www.w3.org/2000/svg" viewBox="0 0 332.07467955479024 60" class="font"><!----><!----><!----><g data-v-423bf9ae="" id="eec4c664-b096-4b81-9991-9a78f872ce40" fill="black" transform="matrix(4.310345099268116,0,0,4.310345099268116,6.816046840596783,-12.413794856009183)"><path d="M1.47 13.24C3.40 13.24 4.77 11.19 4.77 9.73C4.77 8.78 4.19 8.13 3.36 8.13C2.27 8.13 1.41 9.27 0.94 10.19C1.13 9.28 1.26 8.57 1.26 8.30C1.26 7.98 1.06 7.66 0.59 7.66C0.36 7.66 0.34 7.73 0.32 7.90C-0.35 13.51-0.92 13.96-1.58 16.27C-1.60 16.32-1.39 16.80-1.15 16.80C-1.09 16.80-1.02 16.77-0.98 16.73C-0.66 16.42 0.08 13.83 0.74 11.03C1.09 10.22 2.09 8.78 3.07 8.78C3.63 8.78 3.86 9.27 3.86 9.86C3.86 11.28 2.51 12.92 1.01 12.92C0.81 12.92 0.66 12.92 0.66 12.99C0.66 13.10 0.98 13.24 1.47 13.24ZM8.69 12.33C8.69 12.84 9.02 13.22 9.66 13.22C10.74 13.22 11.76 12.15 12.35 10.78L12.17 10.61C11.61 11.83 10.61 12.85 9.98 12.85C9.74 12.85 9.56 12.70 9.56 12.32C9.56 11.63 10.16 10.84 10.16 9.97C10.16 9.35 9.87 8.71 9.10 8.71C7.85 8.71 6.92 10.42 6.26 12.33C6.24 12.21 6.23 12.07 6.23 11.86C6.23 11.10 6.40 9.93 6.75 9.10C8.40 8.11 9.97 5.07 9.97 3.77C9.97 3.39 9.84 2.88 9.51 2.88C8.29 2.88 5.32 9.28 5.32 11.96C5.32 12.70 5.54 13.41 5.89 13.41C6.69 13.41 7.21 9.55 8.60 9.55C8.89 9.55 9.13 9.73 9.13 10.22C9.13 10.89 8.69 11.75 8.69 12.33ZM9.44 4.02C9.48 4.02 9.49 4.05 9.49 4.13C9.49 4.84 8.22 7.52 6.93 8.55C7.63 6.27 9.16 4.02 9.44 4.02ZM17.85 10.64C17.49 11.41 17.14 11.70 16.74 11.70C16.25 11.70 15.76 11.26 15.76 10.54C15.76 9.80 16.31 9.13 16.31 8.78C16.31 8.61 16.18 8.23 15.83 8.23C15.79 8.23 15.76 8.23 15.74 8.25C15.65 8.08 15.48 7.95 15.13 7.95C13.47 7.95 11.75 10.63 11.75 12.11C11.75 12.82 12.15 13.33 12.87 13.33C13.85 13.33 14.73 12.38 15.32 11.00C15.60 11.65 16.11 11.98 16.63 11.98C17.09 11.98 17.63 11.72 18.03 10.78ZM13.17 12.73C12.84 12.73 12.64 12.45 12.64 12.01C12.64 10.95 13.78 8.50 15.36 8.50C15.20 8.74 15.09 9.14 15.09 9.77C15.09 10.09 15.12 10.35 15.18 10.57C14.67 11.77 13.80 12.73 13.17 12.73ZM21.84 8.41C21.14 8.48 20.45 8.50 19.84 8.50L19.32 8.50C20.13 6.78 21.18 5.32 21.18 4.83C21.18 4.63 21.03 4.52 20.89 4.52C20.31 4.52 19.24 6.44 18.45 8.46C18.19 8.44 17.98 8.41 17.84 8.40L17.84 8.65C17.99 8.71 18.16 8.74 18.34 8.76C17.86 10.04 17.53 11.31 17.53 12.14C17.53 13.06 17.96 13.52 18.77 13.52C20.09 13.52 21.35 12.33 22.02 10.75L21.84 10.61C21.13 12.08 20.15 13.01 19.18 13.01C18.62 13.01 18.40 12.70 18.40 11.89C18.40 10.89 18.73 9.83 19.17 8.83L19.38 8.83C20.01 8.83 20.82 8.78 21.84 8.67ZM27.52 10.64C27.16 11.41 26.81 11.70 26.42 11.70C25.93 11.70 25.44 11.26 25.44 10.54C25.44 9.80 25.98 9.13 25.98 8.78C25.98 8.61 25.86 8.23 25.51 8.23C25.47 8.23 25.44 8.23 25.41 8.25C25.33 8.08 25.16 7.95 24.81 7.95C23.14 7.95 21.42 10.63 21.42 12.11C21.42 12.82 21.83 13.33 22.54 13.33C23.52 13.33 24.40 12.38 24.99 11.00C25.27 11.65 25.79 11.98 26.31 11.98C26.77 11.98 27.30 11.72 27.71 10.78ZM22.85 12.73C22.51 12.73 22.32 12.45 22.32 12.01C22.32 10.95 23.45 8.50 25.03 8.50C24.88 8.74 24.77 9.14 24.77 9.77C24.77 10.09 24.79 10.35 24.85 10.57C24.35 11.77 23.48 12.73 22.85 12.73ZM32.63 9.10C34.29 8.11 35.83 5.07 35.83 3.77C35.83 3.37 35.69 2.88 35.38 2.88C34.23 2.88 31.02 9.32 31.02 12.14C31.02 13.22 31.50 13.90 32.47 13.90C33.45 13.90 34.19 13.20 34.69 12.35C34.83 12.38 34.99 12.39 35.14 12.39C35.85 12.39 36.61 12.08 37.14 10.79L36.97 10.61C36.65 11.26 36.18 12.14 35.18 12.14C35.06 12.14 34.93 12.12 34.82 12.10C35.13 11.48 35.31 10.81 35.31 10.19C35.31 9.35 34.96 8.90 34.43 8.90C33.80 8.90 33.25 9.49 33.25 10.39C33.25 11.09 33.59 11.84 34.27 12.19C33.91 12.88 33.26 13.37 32.73 13.37C32.17 13.37 31.96 12.82 31.96 12.05C31.96 10.88 32.47 9.41 32.63 9.10ZM35.29 4.02C35.34 4.02 35.35 4.05 35.35 4.13C35.35 4.84 34.08 7.52 32.79 8.55C33.43 6.41 34.99 4.02 35.29 4.02ZM33.74 10.46C33.74 9.88 33.99 9.45 34.27 9.45C34.54 9.45 34.73 9.86 34.73 10.50C34.73 11.00 34.61 11.49 34.41 11.91C33.92 11.59 33.74 10.96 33.74 10.46ZM41.19 9.07C41.08 9.04 40.98 9.03 40.89 9.03C40.43 9.03 40.24 9.48 40.18 9.74C40.14 9.97 40.10 10.18 40.04 10.39C39.48 11.31 38.71 12.18 38.18 12.18C37.80 12.18 37.67 11.96 37.67 11.62C37.67 10.86 38.28 9.35 38.60 8.88C38.60 8.71 38.09 8.55 37.98 8.55C37.58 8.55 36.75 10.57 36.75 11.61C36.75 12.39 37.32 12.74 37.87 12.74C38.63 12.74 39.31 11.94 39.91 10.96C39.66 11.98 39.40 12.84 39.13 13.52C37.72 14.24 36.41 14.87 36.41 16.06C36.41 16.55 36.82 16.80 37.30 16.80C38.26 16.80 39.21 15.16 39.94 13.37C40.98 12.89 42.17 12.10 42.59 10.75L42.41 10.61C41.87 11.90 40.96 12.66 40.10 12.99C40.75 11.30 41.19 9.53 41.19 9.07ZM37.23 16.35C36.95 16.35 36.85 16.09 36.85 15.93C36.85 15.01 37.83 14.48 38.99 13.86C38.23 15.71 37.51 16.35 37.23 16.35ZM49.98 9.91C49.29 10.92 47.91 12.96 47.04 12.96C46.79 12.96 46.66 12.80 46.66 12.42C46.66 11.06 48.23 8.46 49.55 8.46C50.05 8.46 50.23 8.82 50.23 9.24C50.23 9.39 50.20 9.58 50.16 9.73C50.57 9.73 50.85 9.59 50.85 9.13C50.85 8.50 50.30 8.08 49.57 8.08C47.75 8.08 45.70 10.71 45.70 12.38C45.70 13.16 46.14 13.54 46.73 13.54C47.42 13.54 48.03 12.99 48.85 11.91C48.82 12.07 48.80 12.21 48.80 12.32C48.80 12.81 49.13 13.30 49.81 13.30C50.81 13.30 52.00 12.26 52.58 10.75L52.44 10.61C51.60 12.10 50.71 12.82 50.20 12.82C49.87 12.82 49.73 12.49 49.73 12.21C49.73 11.54 50.54 10.58 50.54 10.26C50.54 10.05 50.15 9.94 49.98 9.91ZM57.02 10.78L56.87 10.61C56.60 11.41 56.01 12.05 55.31 12.59C55.15 12.12 54.82 11.70 54.33 11.33C55.17 10.91 55.99 10.11 55.99 9.09C55.99 8.39 55.45 7.94 54.82 7.94C53.55 7.94 52.95 9.20 52.33 10.86L52.50 11.00C53.14 9.63 53.69 8.47 54.63 8.47C54.99 8.47 55.17 8.79 55.17 9.21C55.17 9.94 54.63 10.99 53.65 11.27C54.38 11.84 54.61 12.38 54.61 13.05C52.99 14.13 51.18 14.88 51.18 16.09C51.18 16.60 51.53 16.80 52.11 16.80C53.82 16.80 55.45 15.01 55.45 13.31C55.45 13.16 55.44 12.99 55.40 12.85C56.14 12.29 56.76 11.62 57.02 10.78ZM52.01 16.39C51.76 16.39 51.58 16.25 51.58 15.93C51.58 14.99 53.12 14.32 54.60 13.37C54.42 15.30 52.70 16.39 52.01 16.39ZM60.86 8.69C60.86 8.01 60.42 7.84 59.99 7.84C58.34 7.84 56.43 10.21 56.43 11.87C56.43 12.78 57.01 13.50 58.14 13.50C59.53 13.50 60.98 12.42 61.74 10.74L61.57 10.61C60.87 11.96 59.63 13.09 58.44 13.09C57.57 13.09 57.33 12.49 57.33 11.91C57.33 11.77 57.34 11.59 57.39 11.41C58.98 11.26 60.86 10.12 60.86 8.69ZM59.95 8.27C60.19 8.27 60.24 8.39 60.24 8.60C60.24 9.80 58.45 10.79 57.46 11.14C57.83 9.81 59.05 8.27 59.95 8.27ZM65.53 8.69C65.53 8.01 65.10 7.84 64.67 7.84C63.01 7.84 61.11 10.21 61.11 11.87C61.11 12.78 61.68 13.50 62.82 13.50C64.20 13.50 65.66 12.42 66.42 10.74L66.25 10.61C65.55 11.96 64.30 13.09 63.11 13.09C62.24 13.09 62.01 12.49 62.01 11.91C62.01 11.77 62.02 11.59 62.06 11.41C63.66 11.26 65.53 10.12 65.53 8.69ZM64.62 8.27C64.86 8.27 64.92 8.39 64.92 8.60C64.92 9.80 63.13 10.79 62.13 11.14C62.51 9.81 63.73 8.27 64.62 8.27ZM69.61 13.19C69.79 12.81 69.99 12.33 70.28 11.89C71.15 10.56 71.65 9.80 72.11 9.80C72.32 9.80 72.52 9.94 72.52 10.30C72.52 10.85 72.10 11.61 72.10 12.29C72.10 12.85 72.38 13.31 73.04 13.31C74.16 13.31 75.01 11.98 75.46 10.81L75.29 10.61C74.86 11.56 74.19 12.82 73.42 12.82C73.09 12.82 73.00 12.60 73.00 12.35C73.00 11.76 73.51 10.75 73.51 10.01C73.51 9.53 73.30 9.11 72.72 9.11C71.76 9.11 70.98 10.21 70.39 11.27C70.55 10.89 70.83 10.01 70.83 9.30C70.83 8.72 70.64 8.23 70.07 8.23C69.06 8.23 67.87 9.70 67.12 10.89C67.33 10.19 67.48 9.55 67.48 9.30C67.48 9.07 67.35 8.93 67.10 8.93C66.84 8.93 66.57 9.10 66.46 9.23C66.44 10.46 65.49 12.75 65.49 12.96C65.49 13.10 65.98 13.26 66.25 13.26C66.93 11.37 68.61 9.16 69.43 9.16C69.68 9.16 69.78 9.37 69.78 9.69C69.78 10.67 68.89 12.66 68.89 12.91C68.89 13.10 69.38 13.19 69.61 13.19Z"></path></g><!----><!----></svg>